<svg version="1.1" id="Layer_1" xmlns="http://www.w3.org/2000/svg" xmlns:xlink="http://www.w3.org/1999/xlink" x="0px" y="0px"
     width="100%" viewBox="0 0 2560 1336" xml:space="preserve">
    <path fill="none" stroke="none"
          d="M1.420423,1335.274048
	C1.000000,891.870239 1.004505,448.740509 0.920057,5.610799
	C0.919382,2.067943 1.391153,0.891186 5.388481,0.891712
	C855.817566,1.003603 1706.246704,1.003937 2556.675781,0.885377
	C2560.803467,0.884802 2561.075195,2.226690 2561.074707,5.675120
	C2560.995850,448.471527 2561.000000,891.267944 2561.000000,1334.532227
	C2558.745605,1336.604614 2556.158447,1335.964478 2553.715820,1335.965332
	C2455.885742,1335.998901 2358.055908,1335.993774 2260.225830,1335.993774
	C1510.417969,1335.993896 760.610168,1335.994385 10.802375,1335.972900
	C7.816207,1335.972778 4.793488,1336.391113 1.420423,1335.274048 z"/>
    <path fill="none" stroke="none"
          d="M1.000000,1335.500000
	C854.041016,1335.000000 1707.082031,1335.000000 2560.561523,1335.000000
	C2560.588135,1335.627441 2561.973633,1337.121582 2559.999268,1337.011841
	C2558.836182,1336.947266 2557.666748,1337.000000 2556.500000,1337.000000
	C1706.166626,1337.000000 855.833313,1337.000854 5.500005,1336.938477
	C4.036689,1336.938354 2.109299,1338.091431 1.000000,1335.500000 z"/>
<path fill="#E2E2E2" opacity="1.000000" stroke="none" 
	d="
M737.000000,521.000000 
	C737.000000,667.657104 737.003113,813.814148 736.991272,959.971252 
	C736.990662,967.714111 737.795654,966.990784 730.083435,966.992920 
	C680.086731,967.006653 630.089722,966.928528 580.093750,967.120422 
	C575.546021,967.137878 572.578308,965.603149 569.872192,962.324890 
	C550.654297,939.043579 531.336182,915.844910 512.132812,892.551575 
	C494.092194,870.668762 476.229797,848.638672 458.147125,826.790894 
	C441.012360,806.088257 423.630005,785.590698 406.474548,764.905029 
	C391.334778,746.649780 376.425781,728.203125 361.290192,709.944397 
	C345.727234,691.170105 329.937378,672.583801 314.388794,653.797729 
	C301.277893,637.957031 288.401489,621.922363 275.349518,606.032532 
	C272.354919,602.386841 269.065948,598.982910 265.000000,594.450562 
	C265.000000,597.631897 265.000000,599.393127 265.000000,601.154358 
	C265.000000,720.813171 265.000183,840.471985 264.999695,960.130798 
	C264.999664,966.998169 264.997314,966.999695 257.923889,966.999756 
	C197.927826,967.000183 137.931595,966.941833 77.935997,967.109070 
	C73.076103,967.122620 71.890915,965.755554 71.896080,960.990234 
	C72.019226,847.331177 72.820572,733.663879 71.734238,620.014954 
	C70.630592,504.555298 71.605682,389.102600 71.005058,273.648712 
	C70.970482,267.003143 71.003883,267.000488 77.796577,267.000397 
	C128.126617,266.999664 178.456711,267.032349 228.786545,266.929535 
	C232.259247,266.922424 234.823074,267.823883 237.019760,270.494293 
	C247.242355,282.921265 257.548309,295.279633 267.818695,307.667297 
	C280.204071,322.605957 292.600067,337.535858 304.960510,352.495087 
	C314.997192,364.642029 324.982635,376.831329 335.000854,388.993561 
	C346.706299,403.204102 358.410797,417.415466 370.137604,431.608398 
	C382.497467,446.567444 394.871826,461.514496 407.260712,476.449493 
	C419.229370,490.877930 431.238037,505.273132 443.204407,519.703491 
	C455.591736,534.641418 467.926300,549.623291 480.326508,564.550537 
	C492.517456,579.225830 504.782806,593.839233 516.975708,608.512878 
	C525.742981,619.063904 534.444946,629.669312 543.984558,641.230347 
	C543.984558,638.055481 543.984741,636.140991 543.984497,634.226501 
	C543.980164,602.061951 544.502625,569.887024 543.870117,537.734863 
	C542.139832,449.778870 543.503113,361.819305 543.005554,273.863464 
	C542.966736,267.002106 543.002869,267.000305 550.082336,267.000275 
	C610.411743,266.999817 670.741272,267.058044 731.070190,266.890656 
	C735.938110,266.877167 737.112854,268.257233 737.104492,273.016113 
	C736.959412,355.510559 737.000000,438.005310 737.000000,521.000000 
z"/>
<path fill="#E2E2E2" opacity="1.000000" stroke="none" 
	d="
M1412.000000,409.000000 
	C1412.000000,458.322510 1412.000000,507.144989 1412.000000,556.479492 
	C1415.800415,554.563660 1418.313599,551.635620 1420.504395,548.778076 
	C1425.791992,541.880859 1432.320557,536.175720 1438.058838,529.715759 
	C1449.870483,516.418823 1462.450562,503.807220 1474.619507,490.824585 
	C1493.261108,470.936188 1511.943970,451.083954 1530.377441,431.003601 
	C1543.754028,416.431915 1557.216187,401.946991 1570.814087,387.581116 
	C1589.438110,367.905548 1607.811157,347.992340 1626.283569,328.173340 
	C1639.768921,313.705261 1653.250244,299.233490 1666.704956,284.736969 
	C1668.055176,283.282379 1669.145996,281.589691 1670.462524,280.100647 
	C1682.051392,266.993683 1682.058472,267.000000 1699.682861,267.000000 
	C1764.010132,267.000000 1828.337402,267.000000 1892.664673,267.000000 
	C1893.664551,267.000000 1894.672363,266.920868 1895.662354,267.020020 
	C1896.924561,267.146423 1898.692627,266.338623 1899.326782,267.721832 
	C1900.118896,269.449615 1898.136841,270.222931 1897.198120,271.234406 
	C1878.995239,290.849579 1860.731567,310.408356 1842.531860,330.026398 
	C1830.892700,342.572540 1819.350220,355.208282 1807.740112,367.781403 
	C1791.280884,385.606140 1774.788574,403.400360 1758.330688,421.226349 
	C1746.834839,433.677856 1735.390137,446.176575 1723.892456,458.626404 
	C1703.373779,480.844635 1682.825439,503.035675 1662.302734,525.250122 
	C1650.576904,537.942627 1638.871094,550.653687 1627.168701,563.367981 
	C1623.906982,566.911804 1620.775513,570.579834 1617.424805,574.036194 
	C1614.906128,576.634033 1616.597656,578.588806 1618.120728,580.566162 
	C1629.455078,595.282104 1640.856567,609.946411 1652.174072,624.675171 
	C1670.666626,648.741455 1689.085938,672.863831 1707.583252,696.926453 
	C1729.921753,725.986023 1752.303101,755.012451 1774.676758,784.044983 
	C1795.938354,811.634705 1817.178223,839.241394 1838.492920,866.790161 
	C1862.955200,898.406982 1887.499268,929.960449 1911.957397,961.580505 
	C1913.017334,962.950928 1915.085693,964.502686 1914.319092,966.154419 
	C1913.470947,967.981384 1911.002441,966.958496 1909.278198,966.959595 
	C1836.618408,967.006653 1763.958618,966.959473 1691.299194,967.103333 
	C1687.050049,967.111755 1684.553101,965.424927 1682.147583,962.359558 
	C1663.923340,939.135559 1645.600220,915.989197 1627.336914,892.795898 
	C1611.741211,872.990417 1596.219238,853.126892 1580.600220,833.339905 
	C1562.512085,810.424805 1544.331299,787.582825 1526.233398,764.675415 
	C1513.482910,748.536804 1500.705566,732.417358 1488.183472,716.102722 
	C1485.950684,713.193909 1484.872803,713.383118 1482.653687,715.797791 
	C1466.462891,733.415588 1450.201050,750.968323 1433.918457,768.501648 
	C1427.807617,775.081787 1421.696045,781.669373 1415.351074,788.020142 
	C1412.921875,790.451660 1411.925903,792.902832 1411.931885,796.346802 
	C1412.028564,851.174744 1411.921143,906.003296 1412.128418,960.830627 
	C1412.147949,966.017761 1410.691528,967.126587 1405.723511,967.112549 
	C1344.563110,966.939819 1283.401855,966.936279 1222.241577,967.117615 
	C1217.202637,967.132568 1215.878540,965.908875 1215.881592,960.796143 
	C1216.018433,731.651245 1216.014038,502.506256 1215.903564,273.361359 
	C1215.901245,268.564056 1216.725464,266.842743 1222.084229,266.861725 
	C1283.411011,267.079041 1344.739014,267.056915 1406.066162,266.890961 
	C1410.927856,266.877808 1412.126465,268.246002 1412.107422,273.011932 
	C1411.927124,318.174042 1412.000000,363.337158 1412.000000,409.000000 
z"/>
<path fill="#E2E2E2" opacity="1.000000" stroke="none" 
	d="
M2302.000000,814.976379 
	C2313.332764,814.974304 2324.175537,815.272339 2334.996826,814.921204 
	C2397.783447,812.883911 2460.584961,814.582520 2523.375977,814.008728 
	C2529.996826,813.948242 2530.001465,814.004333 2529.999023,820.822083 
	C2529.991455,842.487671 2530.735840,864.186890 2529.774902,885.810242 
	C2528.635742,911.453918 2529.418213,937.075073 2529.063477,962.702332 
	C2529.019775,965.873108 2528.217041,967.444336 2524.850342,967.018188 
	C2523.866211,966.893677 2522.853027,967.000000 2521.853027,967.000000 
	C2339.528564,967.000061 2157.204102,967.000061 1974.879639,966.999634 
	C1968.001709,966.999634 1967.999756,966.997375 1968.000366,959.934143 
	C1968.010254,844.273132 1967.179932,728.604126 1968.269897,612.953308 
	C1969.339233,499.491516 1968.429810,386.037018 1968.881958,272.580505 
	C1968.901367,267.718872 1970.529419,266.917297 1974.864746,266.919586 
	C2153.689453,267.013519 2332.513916,267.019165 2511.338623,266.894867 
	C2516.051025,266.891602 2517.196289,268.289246 2517.083252,272.786469 
	C2516.208496,307.572449 2516.195801,342.372345 2515.706543,377.161316 
	C2515.536621,389.272552 2515.133301,401.422302 2515.126465,413.549164 
	C2515.123779,417.999634 2513.884521,419.110382 2509.505127,419.097748 
	C2459.508057,418.953278 2409.496338,418.274048 2359.516113,419.214539 
	C2296.051025,420.408752 2232.593994,419.578308 2169.134766,419.904022 
	C2164.857910,419.925995 2163.902344,421.275818 2163.916992,425.310638 
	C2164.049072,461.475037 2164.018311,497.640259 2163.911865,533.804871 
	C2163.901123,537.405457 2164.434326,539.112488 2168.732178,539.097595 
	C2216.395996,538.932373 2264.079102,539.813354 2311.719727,538.746582 
	C2364.189941,537.571716 2416.646729,538.661438 2469.102295,537.896484 
	C2474.019043,537.824829 2475.167236,539.324524 2475.109619,544.051392 
	C2474.848633,565.380615 2475.762207,586.751282 2474.763916,608.037170 
	C2473.631104,632.183899 2474.370850,656.303101 2474.120361,680.430908 
	C2474.072998,684.985291 2471.963135,685.041687 2468.624756,685.038269 
	C2422.626953,684.991150 2376.611816,684.220032 2330.636230,685.236084 
	C2276.334229,686.436157 2222.044678,685.486694 2167.752197,685.922485 
	C2164.080566,685.952026 2162.918457,686.895447 2162.895752,690.682007 
	C2162.732422,718.143677 2162.294678,745.603577 2162.031982,773.064880 
	C2161.915771,785.229858 2162.212158,797.402344 2161.891113,809.560059 
	C2161.772705,814.051819 2163.153076,815.112732 2167.509521,815.096619 
	C2212.172607,814.931213 2256.836426,814.984375 2302.000000,814.976379 
z"/>
<path fill="#E2E2E2" opacity="1.000000" stroke="none" 
	d="
M1075.000000,550.000000 
	C1075.000000,687.153625 1075.000122,823.807251 1074.999268,960.460876 
	C1074.999268,966.993958 1074.995239,966.999023 1068.594116,966.999207 
	C1007.099976,967.000488 945.605652,966.923706 884.112244,967.134888 
	C878.809509,967.153198 877.892639,965.519470 877.897888,960.666687 
	C878.019714,847.844299 878.822144,735.013611 877.736206,622.201416 
	C876.618408,506.078644 877.607117,389.962799 877.004944,273.845764 
	C876.969421,267.004669 877.002808,267.000702 883.599182,267.000580 
	C945.426575,266.999603 1007.254211,267.057007 1069.081177,266.890442 
	C1073.961914,266.877319 1075.111084,268.280670 1075.103882,273.026733 
	C1074.963867,365.184326 1075.000000,457.342194 1075.000000,550.000000 
z"/>
</svg>